#!OML:ASF F:\VICON\USERDATA\INSTALL\rory3\rory3.ASF
:FULLY-SPECIFIED
:DEGREES
80
root -13.8296 17.8225 -4.41693 -3.28187 -3.67216 -2.69607
lowerback 10.6945 1.84191 2.60505
upperback 0.631797 2.82277 1.11026
thorax -5.26673 1.34075 -0.728349
lowerneck -20.9094 -5.85667 -12.0228
upperneck 28.416 -7.01531 8.73805
head 13.9493 -3.19005 4.26714
rclavicle 2.5345e-014 -2.23633e-014
rhumerus -33.3268 -10.7428 -80.2904
rradius 32.8584
rwrist 4.38091
rhand -14.6649 9.95124
rfingers 7.12502
rthumb 11.4879 -19.714
lclavicle 2.5345e-014 -2.23633e-014
lhumerus -34.8755 3.95924 84.5188
lradius 32.4817
lwrist -5.69913
lhand -18.9574 25.2392
lfingers 7.12502
lthumb 7.34624 55.0917
rfemur -0.749739 -0.810035 29.4063
rtibia 24.2313
rfoot -15.3048 -1.46898
rtoes 9.2224
lfemur -21.1557 3.95681 -16.3512
ltibia 54.3058
lfoot -4.56839 -2.93461
ltoes -5.04963
81
root -13.833 17.8189 -4.28997 -3.0937 -3.95151 -2.69987
lowerback 10.6439 1.95386 2.73019
upperback 0.562685 2.98361 1.05617
thorax -5.29709 1.41536 -0.877882
lowerneck -20.9057 -5.93304 -12.2836
upperneck 28.4162 -7.12893 9.02574
head 13.9904 -3.22988 4.40968
rclavicle 7.64079e-015 -1.25234e-014
rhumerus -32.9502 -10.5106 -80.3688
rradius 33.076
rwrist 4.30799
rhand -14.9709 9.55509
rfingers 7.12502
rthumb 11.1928 -20.1264
lclavicle 7.64079e-015 -1.25234e-014
lhumerus -34.992 4.34476 84.2812
lradius 32.05
lwrist -6.18082
lhand -18.8422 24.8867
lfingers 7.12502
lthumb 7.45745 54.7352
rfemur -0.42087 -0.603567 29.4229
rtibia 24.1491
rfoot -15.6518 -1.49862
rtoes 8.17043
lfemur -21.7792 3.71687 -16.4538
ltibia 52.5997
lfoot -4.96441 -1.94092
ltoes -5.05667
82
root -13.8354 17.8157 -4.16407 -2.84829 -4.2313 -2.75324
lowerback 10.5811 2.06793 2.89785
upperback 0.460846 3.1537 1.01691
thorax -5.35237 1.49282 -1.03715
lowerneck -20.9609 -5.91219 -12.1779
upperneck 28.3826 -7.13429 9.04543
head 13.9841 -3.21603 4.39709
rclavicle -4.98018e-014 -3.57812e-015
rhumerus -32.5932 -10.4457 -80.3815
rradius 33.2463
rwrist 4.40681
rhand -15.1863 9.11942
rfingers 7.12502
rthumb 10.9851 -20.5732
lclavicle -4.98018e-014 -3.57812e-015
lhumerus -35.1285 4.78738 84.0508
lradius 31.6319
lwrist -6.72204
lhand -18.7601 24.7923
lfingers 7.12502
lthumb 7.53671 54.638
rfemur -0.142294 -0.398506 29.4975
rtibia 24.0458
rfoot -15.9169 -1.53794
rtoes 7.34187
lfemur -22.3543 3.34671 -16.4824
ltibia 50.7457
lfoot -5.28938 -0.986949
ltoes -4.3835
83
root -13.838 17.8069 -4.04066 -2.63139 -4.50261 -2.86895
lowerback 10.5487 2.14758 3.06512
upperback 0.402554 3.28098 1.03418
thorax -5.38281 1.55042 -1.13112
lowerneck -21.1533 -5.85085 -12.0074
upperneck 28.3996 -7.03434 8.90017
head 14.0035 -3.16854 4.32579
rclavicle 9.03228e-015 1.88845e-015
rhumerus -32.0156 -10.1746 -80.4263
rradius 33.1739
rwrist 4.37676
rhand -15.3738 9.26769
rfingers 7.12502
rthumb 10.8042 -20.4344
lclavicle 9.03228e-015 1.88845e-015
lhumerus -35.308 5.09973 83.9296
lradius 31.3658
lwrist -6.96507
lhand -18.9104 25.2557
lfingers 7.12502
lthumb 7.39167 55.1066
rfemur 0.194214 -0.22891 29.6175
rtibia 23.8338
rfoot -16.0115 -1.48752
rtoes 7.31529
lfemur -22.8161 2.87734 -16.3908
ltibia 48.7363
lfoot -5.52012 0.00787406
ltoes -2.22062
84
root -13.8379 17.7995 -3.91382 -2.47692 -4.83707 -3.0009
lowerback 10.5108 2.23783 3.29171
upperback 0.408676 3.42647 1.04194
thorax -5.33688 1.61736 -1.26856
lowerneck -21.4131 -5.82838 -11.9469
upperneck 28.4361 -6.97407 8.84406
head 14.0611 -3.13719 4.30306
rclavicle -1.98412e-014 6.95746e-016
rhumerus -31.2947 -9.9665 -80.4963
rradius 32.8682
rwrist 4.3405
rhand -15.7999 9.42662
rfingers 7.12502
rthumb 10.3932 -20.2965
lclavicle -1.98412e-014 6.95746e-016
lhumerus -35.4128 5.3578 83.8199
lradius 31.0167
lwrist -7.12494
lhand -19.1504 25.2024
lfingers 7.12502
lthumb 7.15994 55.0613
rfemur 0.630561 -0.204206 29.7037
rtibia 23.5268
rfoot -16.0674 -1.25347
rtoes 6.69293
lfemur -23.1347 2.47748 -16.2767
ltibia 46.6113
lfoot -5.61799 1.55989
ltoes -2.67771
